<mxfile host="app.diagrams.net" modified="2022-04-03T16:58:40.469Z" agent="5.0 (Windows)" etag="vVffFQRCVj2wd7OigDzt" version="17.4.0" type="github">
  <diagram id="C5RBs43oDa-KdzZeNtuy" name="Page-1">
    <mxGraphModel dx="1491" dy="3272" grid="1" gridSize="10" guides="1" tooltips="1" connect="1" arrows="1" fold="1" page="1" pageScale="1" pageWidth="827" pageHeight="1169" math="0" shadow="0">
      <root>
        <mxCell id="WIyWlLk6GJQsqaUBKTNV-0" />
        <mxCell id="WIyWlLk6GJQsqaUBKTNV-1" parent="WIyWlLk6GJQsqaUBKTNV-0" />
        <mxCell id="WRUpn4A0-qoghQgqd408-191" style="edgeStyle=orthogonalEdgeStyle;rounded=0;orthogonalLoop=1;jettySize=auto;html=1;entryX=0.5;entryY=0;entryDx=0;entryDy=0;fontFamily=Helvetica;fontSize=30;fontColor=#000000;startSize=100;" edge="1" parent="WIyWlLk6GJQsqaUBKTNV-1" source="WRUpn4A0-qoghQgqd408-1" target="WRUpn4A0-qoghQgqd408-187">
          <mxGeometry relative="1" as="geometry" />
        </mxCell>
        <mxCell id="WRUpn4A0-qoghQgqd408-1" value="&lt;font style=&quot;font-size: 30px&quot;&gt;Main&lt;/font&gt;" style="strokeWidth=2;html=1;shape=mxgraph.flowchart.start_1;whiteSpace=wrap;" vertex="1" parent="WIyWlLk6GJQsqaUBKTNV-1">
          <mxGeometry x="405" y="-10" width="150" height="100" as="geometry" />
        </mxCell>
        <mxCell id="WRUpn4A0-qoghQgqd408-153" value="while(true)" style="swimlane;glass=0;sketch=1;disableMultiStroke=0;fontFamily=Helvetica;fontSize=30;fontColor=#000000;startSize=70;strokeColor=default;fillColor=default;" vertex="1" parent="WIyWlLk6GJQsqaUBKTNV-1">
          <mxGeometry x="160" y="480" width="640" height="1320" as="geometry" />
        </mxCell>
        <mxCell id="WRUpn4A0-qoghQgqd408-155" value="For i=0 0 to size step 1" style="swimlane;glass=0;sketch=1;disableMultiStroke=0;fontFamily=Helvetica;fontSize=30;fontColor=#000000;startSize=65;strokeColor=default;fillColor=default;" vertex="1" parent="WRUpn4A0-qoghQgqd408-153">
          <mxGeometry x="80" y="138" width="400" height="380" as="geometry" />
        </mxCell>
        <mxCell id="WRUpn4A0-qoghQgqd408-158" value="col +=k" style="rounded=1;whiteSpace=wrap;html=1;glass=0;sketch=1;disableMultiStroke=0;fontFamily=Helvetica;fontSize=30;fontColor=#000000;startSize=100;strokeColor=default;fillColor=default;" vertex="1" parent="WRUpn4A0-qoghQgqd408-155">
          <mxGeometry x="140" y="137" width="120" height="60" as="geometry" />
        </mxCell>
        <mxCell id="WRUpn4A0-qoghQgqd408-163" style="edgeStyle=orthogonalEdgeStyle;rounded=0;orthogonalLoop=1;jettySize=auto;html=1;entryX=0.5;entryY=0;entryDx=0;entryDy=0;fontFamily=Helvetica;fontSize=30;fontColor=#FF3224;startSize=100;" edge="1" parent="WRUpn4A0-qoghQgqd408-155" target="WRUpn4A0-qoghQgqd408-158">
          <mxGeometry relative="1" as="geometry">
            <mxPoint x="165" y="65" as="sourcePoint" />
            <mxPoint x="164.9999999999999" y="155" as="targetPoint" />
          </mxGeometry>
        </mxCell>
        <mxCell id="WRUpn4A0-qoghQgqd408-165" value="arr[row][col] = ++count;" style="whiteSpace=wrap;html=1;fontSize=30;fontColor=#000000;rounded=1;glass=0;sketch=1;disableMultiStroke=0;startSize=100;" vertex="1" parent="WRUpn4A0-qoghQgqd408-155">
          <mxGeometry x="35" y="240" width="330" height="60" as="geometry" />
        </mxCell>
        <mxCell id="WRUpn4A0-qoghQgqd408-166" value="" style="edgeStyle=orthogonalEdgeStyle;rounded=0;orthogonalLoop=1;jettySize=auto;html=1;fontFamily=Helvetica;fontSize=30;fontColor=#000000;startSize=100;" edge="1" parent="WRUpn4A0-qoghQgqd408-155" source="WRUpn4A0-qoghQgqd408-158" target="WRUpn4A0-qoghQgqd408-165">
          <mxGeometry relative="1" as="geometry" />
        </mxCell>
        <mxCell id="WRUpn4A0-qoghQgqd408-159" style="edgeStyle=orthogonalEdgeStyle;rounded=0;orthogonalLoop=1;jettySize=auto;html=1;entryX=0.5;entryY=0;entryDx=0;entryDy=0;fontFamily=Helvetica;fontSize=30;fontColor=#000000;startSize=100;" edge="1" parent="WRUpn4A0-qoghQgqd408-153" target="WRUpn4A0-qoghQgqd408-155">
          <mxGeometry relative="1" as="geometry">
            <mxPoint x="280" y="70" as="sourcePoint" />
          </mxGeometry>
        </mxCell>
        <mxCell id="WRUpn4A0-qoghQgqd408-176" value="" style="edgeStyle=orthogonalEdgeStyle;rounded=0;orthogonalLoop=1;jettySize=auto;html=1;fontFamily=Helvetica;fontSize=30;fontColor=#000000;startSize=100;" edge="1" parent="WRUpn4A0-qoghQgqd408-153" source="WRUpn4A0-qoghQgqd408-169">
          <mxGeometry relative="1" as="geometry">
            <mxPoint x="280" y="700" as="targetPoint" />
          </mxGeometry>
        </mxCell>
        <mxCell id="WRUpn4A0-qoghQgqd408-169" value="if --size ==0" style="rhombus;whiteSpace=wrap;html=1;fontSize=30;fontColor=#000000;rounded=1;glass=0;sketch=1;disableMultiStroke=0;startSize=100;" vertex="1" parent="WRUpn4A0-qoghQgqd408-153">
          <mxGeometry x="170" y="560" width="220" height="80" as="geometry" />
        </mxCell>
        <mxCell id="WRUpn4A0-qoghQgqd408-170" value="" style="edgeStyle=orthogonalEdgeStyle;rounded=0;orthogonalLoop=1;jettySize=auto;html=1;fontFamily=Helvetica;fontSize=30;fontColor=#000000;startSize=100;" edge="1" parent="WRUpn4A0-qoghQgqd408-153" source="WRUpn4A0-qoghQgqd408-165" target="WRUpn4A0-qoghQgqd408-169">
          <mxGeometry relative="1" as="geometry" />
        </mxCell>
        <mxCell id="WRUpn4A0-qoghQgqd408-177" value="For i=0 0 to size step 1" style="swimlane;glass=0;sketch=1;disableMultiStroke=0;fontFamily=Helvetica;fontSize=30;fontColor=#000000;startSize=65;strokeColor=default;fillColor=default;" vertex="1" parent="WRUpn4A0-qoghQgqd408-153">
          <mxGeometry x="80" y="699" width="400" height="361" as="geometry" />
        </mxCell>
        <mxCell id="WRUpn4A0-qoghQgqd408-178" value="row +=k" style="rounded=1;whiteSpace=wrap;html=1;glass=0;sketch=1;disableMultiStroke=0;fontFamily=Helvetica;fontSize=30;fontColor=#000000;startSize=100;strokeColor=default;fillColor=default;" vertex="1" parent="WRUpn4A0-qoghQgqd408-177">
          <mxGeometry x="140" y="137" width="120" height="60" as="geometry" />
        </mxCell>
        <mxCell id="WRUpn4A0-qoghQgqd408-179" style="edgeStyle=orthogonalEdgeStyle;rounded=0;orthogonalLoop=1;jettySize=auto;html=1;entryX=0.5;entryY=0;entryDx=0;entryDy=0;fontFamily=Helvetica;fontSize=30;fontColor=#FF3224;startSize=100;" edge="1" parent="WRUpn4A0-qoghQgqd408-177" target="WRUpn4A0-qoghQgqd408-178">
          <mxGeometry relative="1" as="geometry">
            <mxPoint x="165" y="65" as="sourcePoint" />
            <mxPoint x="164.9999999999999" y="155" as="targetPoint" />
          </mxGeometry>
        </mxCell>
        <mxCell id="WRUpn4A0-qoghQgqd408-180" value="arr[row][col] = ++count;" style="whiteSpace=wrap;html=1;fontSize=30;fontColor=#000000;rounded=1;glass=0;sketch=1;disableMultiStroke=0;startSize=100;" vertex="1" parent="WRUpn4A0-qoghQgqd408-177">
          <mxGeometry x="35" y="240" width="330" height="60" as="geometry" />
        </mxCell>
        <mxCell id="WRUpn4A0-qoghQgqd408-181" value="" style="edgeStyle=orthogonalEdgeStyle;rounded=0;orthogonalLoop=1;jettySize=auto;html=1;fontFamily=Helvetica;fontSize=30;fontColor=#000000;startSize=100;" edge="1" parent="WRUpn4A0-qoghQgqd408-177" source="WRUpn4A0-qoghQgqd408-178" target="WRUpn4A0-qoghQgqd408-180">
          <mxGeometry relative="1" as="geometry" />
        </mxCell>
        <mxCell id="WRUpn4A0-qoghQgqd408-193" value="True" style="text;html=1;resizable=0;autosize=1;align=center;verticalAlign=middle;points=[];fillColor=none;strokeColor=none;rounded=0;glass=0;labelBackgroundColor=#FAFAFA;sketch=1;disableMultiStroke=0;fontFamily=Helvetica;fontSize=30;fontColor=#000000;startSize=100;" vertex="1" parent="WRUpn4A0-qoghQgqd408-153">
          <mxGeometry x="160" y="640" width="80" height="40" as="geometry" />
        </mxCell>
        <mxCell id="WRUpn4A0-qoghQgqd408-202" style="edgeStyle=orthogonalEdgeStyle;rounded=0;orthogonalLoop=1;jettySize=auto;html=1;exitX=0.5;exitY=1;exitDx=0;exitDy=0;entryX=0.5;entryY=0;entryDx=0;entryDy=0;fontFamily=Helvetica;fontSize=60;fontColor=#000000;startSize=100;" edge="1" parent="WRUpn4A0-qoghQgqd408-153" source="WRUpn4A0-qoghQgqd408-200" target="WRUpn4A0-qoghQgqd408-155">
          <mxGeometry relative="1" as="geometry">
            <Array as="points">
              <mxPoint x="280" y="1240" />
              <mxPoint x="580" y="1240" />
              <mxPoint x="580" y="118" />
              <mxPoint x="280" y="118" />
            </Array>
          </mxGeometry>
        </mxCell>
        <mxCell id="WRUpn4A0-qoghQgqd408-200" value="k = -k" style="whiteSpace=wrap;html=1;fontSize=30;fontColor=#000000;rounded=1;glass=0;sketch=1;disableMultiStroke=0;startSize=100;" vertex="1" parent="WRUpn4A0-qoghQgqd408-153">
          <mxGeometry x="220" y="1160" width="120" height="60" as="geometry" />
        </mxCell>
        <mxCell id="WRUpn4A0-qoghQgqd408-201" value="" style="edgeStyle=orthogonalEdgeStyle;rounded=0;orthogonalLoop=1;jettySize=auto;html=1;fontFamily=Helvetica;fontSize=60;fontColor=#000000;startSize=100;" edge="1" parent="WRUpn4A0-qoghQgqd408-153" source="WRUpn4A0-qoghQgqd408-180" target="WRUpn4A0-qoghQgqd408-200">
          <mxGeometry relative="1" as="geometry" />
        </mxCell>
        <mxCell id="WRUpn4A0-qoghQgqd408-197" style="edgeStyle=orthogonalEdgeStyle;rounded=0;orthogonalLoop=1;jettySize=auto;html=1;exitX=0.5;exitY=1;exitDx=0;exitDy=0;fontFamily=Helvetica;fontSize=60;fontColor=#000000;startSize=100;" edge="1" parent="WIyWlLk6GJQsqaUBKTNV-1" source="WRUpn4A0-qoghQgqd408-187" target="WRUpn4A0-qoghQgqd408-153">
          <mxGeometry relative="1" as="geometry" />
        </mxCell>
        <mxCell id="WRUpn4A0-qoghQgqd408-187" value="" style="shape=image;verticalLabelPosition=bottom;labelBackgroundColor=default;verticalAlign=top;aspect=fixed;imageAspect=0;image=data:image/png,iVBORw0KGgoAAAANSUhEUgAAAOwAAACbCAYAAABh9HdtAAAAAXNSR0IArs4c6QAAAARnQU1BAACxjwv8YQUAAAAJcEhZcwAADsMAAA7DAcdvqGQAABW7SURBVHhe7Z1RbBNXvsa/vS+rFa3jgjcbKmgT4hUVKu3CkraJLlI2lIREF27pvV5YVPEQJVQpBbFSlQilgEKJoqCViqAsgkR9QCu61NqlC1ehhDaNhBp2N5S0BaGiJhBEVVLX0MRdHu7TvefMnLHH47Hjie3Ek3w/acAzx57M2PPN/3/OzP+bnzzxxBP/B0KIK/g39T8hxAVQsIS4CAqWEBdhL9jH38LTez/EC680qgXEzazoGsXevi9Rt1YtIMlZewo7++T3JaePsEItTo9ObBWf29qkZnNA9iPsyqN4Yedb+KmaJWnQ9BH2njmFIjVLZpCLW3C4qhj7OwYwrhblE/aC/XYPru9fh7//qUstIG5mqFEcgFXPoOeiWkBcS8JlHc8rH2LZEv31v/7ZiesffqLPSGT0XPY5hsLrsOK5edqi6HtkGt1Qhke0pWZGcGP/dkTUXFJklFn5GU6EarGt3KMtGr98AIdbu7XXRe1fYlvheexvbNHmtdRldyEuVb2IIe2zIVzxVWBVQQRXgtfhD1TAOzGAExu3YEz/xCQ0oO7Mm+LzahbDOCfXrb2Wqc4mFGuvBXHrlW21CHfEBCFT0NUhte2p9kvbB7Gd2lIz5r89CXL9Ab+aif/O4tdvXad1f3VGg8U4eUzNWPY7bt2TYHwH72NndL/j1m3d95HT+m9r/l1Vk4bcz+pQ+r9niu9FO5bUNkni91mRbDtSon9fMNZn7KPlOKzcF0Tz88DgHwLY16cWpklChI38SURWEV1v3FILrCz5L6zwfai95+//M4JHnvtvaLtuRGWxDOODGJKvtSkNsRqUbtJFKVOS4DC85ZvT70OUVsDXW4xzIx6sCsgv+jRGC57GyrT6bergDYuDRv5tbTJ+KNm2CV7xg+vLD+AKKrCtq1NrTYtk+2WkX2KZdhJI+NuTIQ4Qsa9XOozPFccLKmV6142ejbHPadsgRBM7cK37fRrj5W866p95xfuN/T5xOYLiaiPtF9stDuRxcWAb6x4V39HO9gaxzXfFthZiYSb9bU2sSb4X0batPCROXqpN7HdxIAf9eyVWbR/TDhqT47wPK8VopMpXP8d34if42eP6bMbIg9aIoMc+w6iTH058tlcdbOOX/+zgrCho2iwijYhAxt82o9ouRYUgDvQ/CgGU/jr9k0km+zUpHvgrxYGeEVL4iN//tVXwYwDvR/e7Bb1SdCsdnKhM+z3Wfx3jBWK/xeui9loUm34vue6T8kS2rEocTV8jPKEWy4NeDfwULSoEwnfTOPDFiabaL46BwzZdAKPNdHwce1E7yWf+HZpYFBNrQuQW9LcFUFfnPLpKsj/o5EK0g2EihHtqPoFUbTOKONBF9ISIZFMb1dRZ0SXTOEtU9xfCWyAyieiI6WhcGpkO4zf6YgLTor3pbyQVXzfuhT3wiWy2qLIQ4yJhM05u46Gv9Rcp+SV8Is0f/8aUaVhI1ZYNistlqj+MazZizRQKVjD2TUi9SoKKDFHkwaxezjhG2iumE5cLsd6paEWKuB7mVNiEjJBG6mhMdlnIVPAtjhsV106ainuhCLyLOrFyGXDt/RB8IvotLPSkKTRThE6Cd5E5mop1+9TLLCH7xOdG/Fifg5H/7At27AH+5V0Gb7bSZDPRH1nvAzkWTeMR9PT0oOcdS/oj01QRTX4r+1BWtBTWj9XRNpu0SqSlMiJI5IDG+lL9ddoMh0S6mKK/XdWGoNzu99pQqRbZMemJx4pMOa2psEGq78REwztiu8S2HXFwyV5PjytQHe0Pd6JaRO/RXnNfbzF84c8wJPq0WLYZy30RhEU3O0Yl2t6TfzuItiq1SKMbV2+I1D1gd+LS2+LGRhK6PGmQxu8x1Jh8rEMOOjn9zgwsgm1EibxhQkxypPiR51q010+v+41qT4Nv9+DrfwIlDfp6Xth7VB+UypCx1sP6F6ClZ7UIB6dwnazrC4gMC1iw2PJFi9RSDaoY6V8svbS26YNTscEdvf9VHFBpY+F5cXZVTekiouT7l4FVu61/W9H3CW7IqFEwX5w6TMjBlej2ikkbaImlnfLkoS3XTm7ijB+3bnHiec28XE3RA8zuO0m8KaD7C31nix5PdSqxILMCkcp71Xe2t08f3DKivDzxeEVaiavyRNKCa2E/igtEtySuT9qPT756KP6fh/mWE+RY6zMq24httzagZdfm6DtTJPs94pCDevpgmvXz/d/qp6XSZ1OfDO2YY9U68qzcjLL7f0Xd67ntx2QbGcleXjCIg7/bJw7VPEJGmzfKMHamDjum+7K9zJg2Fk3p8kimZPR7ZPCdzRnB6te+5gG3XCZW7aAUIWQi38SqTn4FwMi0i7UBR3peRikeTr9YM/o9Mv/OWA9LiIvgKDEhLoKCJcRFULCEuAgKlhAXQcES4iIoWEJchP1lHaO29dZfZlERe+wamIaj67HGdT+dxGtomaxbXYRXNcgzcp1YXcifl8XrmtHr3nl3/djdZF+wssj93x9g6PAe/K9alB/ooprfZ3fBeg2aP6hBiZrTiHyOQ1tP4aaa1Um2jmysWx3kP78wzYLVt33ZVwcRaLPKKn7bI4PH0dLu7L5LeTKq+d5u3WQq2KfEc9Ii5g7OvtSMJmOyEdTUyeW6M8WP+QUPceOSVVClqD9ZgwVCpNo2H/ocKHsVzfWqOU3kvcbzfp78jlvijATBSosY/aZ9m5v+ZfR8pRE/XfeXxPcYTov/IRJHbxlWqHZHN/9bbmaPu9FctslyJa2oWb3HVAkhLUnkDd7Rm7etnyfOqF+HMs8d9BsRtf8U+m8DJcvX6PPZQFW9BPc5KByY4yQIduYsYjqxdeVnsbpLrQLGUiUhC6o1nx3RLm1PSmvjrD2SW5IQpyxdOB+4/RXOG/Ote7BB5sYLfoGl+iIyAzgfJc6ZRUwLTprrMm2tVCKxUqiLfRieiNWhaiSxJEmPJ7Hhg4M4pk17UJ/Vk35u1m3UVVonR3WWVbLGeAx3kw001W/XtnvX0hEcEmlxxPMYjPGxtBh5gIdLnoVtIVnfPgTq6ti/dUBeXdbRDa+NyeRSaDBxHVejNZG6iZjZKSGlJUlKPsZBcx/z7AOU7cqWsHK3bt0bqC5hSq8KRI58C4ELcR+t2yG+TRtKanCs8gccktst+91LHoMn8gOSJV+2SFH+4QFq5N+yGgcQx+SNYHWnBmnFqVJi6aSn2qadd7+C6K7lhiyuO7MI240dUuBC3Nt7jiREwJv3Hoh/7+CsaYBMS5Pvf+dswEyWo2knBfG33FTWmKdkX7CZWMSYzM6kMVhChJ0mat+uQUlkBJ/mIFPL5rozi7CKPmmGVoTFcTYrAu3EIlL5t41BpjX4z7JHcfvax2peJy2LmPt37a/DGlYrjLxpYxHszFnEjLWe1zyEDJe+1aGB6Yuwqp9mTBtwIXuXXnK57pwiU/kLuC3TYm3ba4CzzTj4rmpWTMkixkA7WQiS9XFJAnOogD3VzQ3pMpUbJ9JnZm6ckH3ZGjyY6h1Ok9mdyJT42S+S7JP+vbnRsmemyKtBJzITDOPBRKKR2eRIsYl0dhJvooZnS/Hw+zi7Qw29/02xOmXORVjeS2xDLu8lxgj+mmwUmjiGnk6EuAimxIS4CAqWEBdBwRLiIihYQlwEBUuIi6BgCXERs+ayjqzX3FX2qJrTuW1zKx0hbmZWCbYepxx7DhHiJiwpcSe2ymdZmm1YzE+RNmxa1Kz+/i+V64P+2Tpl0bKzvRN1Z+Q6jPY8gJYkxOXY9GH9WG/YsMia1LgnZU+GH6ukRUtwGN7yTfD1ykfHe+CvZC0GIdnARrAmGxb59GuRYXoXpSs48dn3lc3LxAB6TW4Qk5ENuxNP2auxUrZoHacJWpIQl5M3o8SZFmPfbH8rZsPy0nEMLqixFy0hLiZvBJuNCBtjBJ/e/FG9JmT24FywUSfCBtSdyZ6NS1bsTgwqt6Dexs6EliTE7TgT7LEXcW7Ej/XaCPKb8PXOoFFaHNKlPmbDcmxXKW4esrkGS0sS4nLmWD0sLUmIu5kzgo06INyiWIl7oeMEIS4ib0aJCSGTQ8ES4iIoWEJcBAVLiIugYAlxERQsIS7CIlhZ0zqKrWmX0xFCppO8i7DSOULeXthcrxYQQqLkkWD1+4HrMZK7hykT4nJSC9awiomzhckNS1u3wNffjJb279QSe/QHCCc+MZyQuUBywUqx7q7AeLAY+zdu0atccogsQKfDISGpsdxLLAedNgGXB+At18V60oHNS9xjE6M4fYThGjQnedo3IXMdW8HqRenDOFdleDtNJxQsIcmwTYlHRWTVCtUd9l31/qV1CqKtSr2BEJIRSfuwQ40HcAUV2NbVqZZMTvfriRYvdXXZeaK3gX5S4EmAzE1SjBJ3o2fjaYyWbsJeaS6uluaM+u3K4qUGJWK2ZINu92K9Hjv8/UPx7zwsW00zcDL3cF8Be+MRcSIpcjiQRcjswEWCbcCRnpdR6njUmZDZAy1iCHERqe90IoTkFRQsIS6CgiXERVCwhLgICpYQF0HBEuIiKFhCXER+XYfVanALcWkmqoTkrZEbnlQzP2Lw0Ft4lw9qJ3kGI6ykcgs6N8wXItWf4H5oECjbtR21qpmQfME2wha1f4lt5R41p5fbGYXsk7YVnsf+xhZ9QVzElA+A3gn88Tx8u601t+Y6XDMRXOl4Bj0X1WyOqH37IDbgApp+bzwA2q4mV90aeYtPvyMzR0KE1QUZEkIqxn41RV0nmj6KbwsOozjwJerWqvZJ8WDV7lqEO+TnD+DKhB+r26U7UwtOyvV1DGBcE7Faf1XuxSrN3xYugOlp7dIMTq8YWrCwVF9ESJ5gEWwnqkX0HA3a9SFFhKz2Y/zyn2Nt2hPZPfBXpm+JNho0RNiNqzci8Bb+UlueGTL6WQvnxfReG5wU4clIe+yDV7H05nGRFv8Ij88c87uxQ9b3MrqSGSResGsXwyvS0PCwmrdh/Jt8PGCVmKzT7/Yh3XEjWX9bGT6u9WFb2kewxPcoIuFR1UpIfhAv2It3RUqaGu8iczRtwEKfejmjZBJhR3Dvvvjv9gVNqDp6mnz/njFPSH5gSYlbcE2kuKtes/NyUils+eaY+0TTZqwqGMalVlPU9S1Wn+3E1t0VImI7QDth+LHc8aNCMouw56/dESG2JuZuUb8OZZ47uBZnAqdOCg7TbEKyScKg01BjMc6FK7BNGoiryXjWzljrMzhxuRDrjbZAIa50xPq7Y62HdR8orb0W4aAcRHJCC05qA1nG33YyoJUB7x5F09k7UVuaYxuAsy8dxXnVrDOMBxPiv4Jl+A39pMgMwQJ2B2i+ywsGcdBB35iQbELBpoPmI1UKTFCsZGahYAlxEQl9WEJI/kLBEuIiKFhCXAQFS4iLoGAJcREULCEuYkqClSV45jugCCHTAyMsIS6CN04Q4iJsBGuxa5kYwImNWzCmzZjbEu1brPYxGiOnY5Yxsgj+zJtYVaBm49pyidzuX+NaRwirjQoi8341fYS91SHLfkpnDLF/ftG2MoQrvgqx3WKfg9fhD4h1xH0vgqo2BN8oA/5xEIE23rxIckNCSryiaxO8lw8oixYxmQ9Kw8ql6jTsSrtlNU/0c9p7hnHOJMgVXUKsYSFSrf2AEMEm7NQsYqYDP9Zr/lJq2woqUJ1uH7y0Ar7eYs1dY1VArkN+/mmsnI5KIkJM2PZhvcuqbOphnSGFjzirmU4sLzULuBs9vcNp/y1ZKZNQoN4TRFvapW4yIzC2R9b9WovxUyCiaa/ytYqzyDHTtw+BujpGV5JTEgQ71CgiX7SmdYojwSLFXI/TMfM2iWY/I6KcWq9eT+tXjZPT/bpNgXodH+xM5hY2EVZEvo0qre0YgDfgVLSi/xdAXCocw+yIqKa4lDs5mUdYQtxP6ss6aXg8xSMHlaypsOJiH4YnRITt6lQLnJHzCFtQiIXaC30fEj2SJ0EOOsmTyDvT1ScncxGLYOXoqCll7dMHoMy+xMbyYs1jWL6O2bgUte/URoBjFi9y+kh5QMnIrQ80xdpGp3HQKQWaXauRrr8JX6/9oFpK+u7qmcKSZ4XkCckNvA6bNSrR9l4zyu7zyQAkd1CwWaByXxDNz88DblGsJLdQsIS4iNSDToSQvIKCJcRFULCEuAgKlhAXQcES4iIoWEJcBAVLiIuYRddhS1F/8lWUGfXzty+g6fcfqxlCZgezJsLWvi3Eel+I9KVmMV3A7ZIadLaWqlZCZgcWwcpKFb2cbkWXcYN+/DNaDcdEY4qW3snCgDOJD4LW3j/FCp20qdyCypIfMfg3I6J+jL8N/gjP0uexVC3RUBU1wX18JDNxJ7YRVlbbrA7pNjGaLcpvleCEKLeVh2I1rdrDl5Wgh0MYj5aoTTNLHoMnMoJPDbOH+u3YVfYo4HkMS9QiQmYD9inxyGkcbtVvYh+6Ogz4FovIKaJvtT/eIkUrS/PAX9kQXztrirYLCz0YD32tL0+BvIE+sUC9B0ca1RvSQUTazugT1EVajPlYaA6mtHEhLsdWsKNXTW4RQpRmV4jxb5JVo3yN8ISIsCLarlgp1hGORdvkn4nR3xawKVCvw44u9YbJ8PwKu3Y9hn6tD3sU5yt/gQV4gHvUJplFOB50ijcua8BCn3qJbtwLe+Dzd2K5L4Teq8DyJtkeQVgE6cnIKMLe+gERiD7sISFUtUhPk3/ALTVLyGzAgWC7cfVGBN7yzcpBQtC0GasKhnFJpc8aixYDN/owJvq03pWb4SsI4Z7JuzgZGUXY/n/gZuRRlNVvUYNMpaivfBKRm2K5Nq+gjQtxOY4irPQdPnG5MOZ8GCg0WYcC90IRFJc/jXC/ELD0cPL5UTwhBKvac8cI3t16HIMQabHsw37wKpbePI6W9hHVrqCNC3E5c6yAnTYuxN3MGcHSxoXMBmgRQ4iLcDxKTAiZOShYQlwEBUuIi6BgCXERFCwhLoKCJcRFZPeyztpT2Lm7Al5tRj5a0uYpdoSQKZPdCHtxCw7LOtmOAYePqZwmjPK7t9eoBYS4izmTEi9t3YNj9cDN22oBIS7EVrBJbWAEqdryFhFZ630DaNp6KmUhgl7ix6e6k/wlQbBSkHE2MGIyP9A5qUVMPtN/Ci10UCSzAItgO1Fd7sFo0G6waBKLmAzJikVMhug1uQHs61MLCMkz4gW7djG8SO0QkY7dy1TI2CLGKE6PTkdY80pmHfGCNRupJSG5RUxmZBxhlcFaTOw7wCI6MtuwpMQtuCZtTV9L9BdO2yJmimQcYbOAcdKYzjScECfY3jghTcTXm0zzR4OxgSd9UMp4HkYEVzqeQY/ybIpvM8iHGyjWoPmDGpSouSjWx3k0HkHPRrHjLHIneQoL2M3IfvAbZRg7M72RnZB0oWA1lNdTATBCsZI8hoIlxEUk3DhBCMlfKFhCXMRPnnrqKabEhLgERlhCXAQHnQhxDcD/A4a/6RUptRVQAAAAAElFTkSuQmCC;" vertex="1" parent="WIyWlLk6GJQsqaUBKTNV-1">
          <mxGeometry x="277" y="160" width="406" height="266.65" as="geometry" />
        </mxCell>
        <mxCell id="WRUpn4A0-qoghQgqd408-194" value="&lt;div&gt;False&lt;/div&gt;" style="text;html=1;resizable=0;autosize=1;align=center;verticalAlign=middle;points=[];fillColor=none;strokeColor=none;rounded=0;glass=0;labelBackgroundColor=#FAFAFA;sketch=1;disableMultiStroke=0;fontFamily=Helvetica;fontSize=30;fontColor=#000000;startSize=100;" vertex="1" parent="WIyWlLk6GJQsqaUBKTNV-1">
          <mxGeometry x="827" y="950" width="90" height="40" as="geometry" />
        </mxCell>
        <mxCell id="WRUpn4A0-qoghQgqd408-230" style="edgeStyle=orthogonalEdgeStyle;rounded=0;orthogonalLoop=1;jettySize=auto;html=1;exitX=0.5;exitY=1;exitDx=0;exitDy=0;fontFamily=Helvetica;fontSize=60;fontColor=#000000;startSize=100;" edge="1" parent="WIyWlLk6GJQsqaUBKTNV-1" source="WRUpn4A0-qoghQgqd408-195" target="WRUpn4A0-qoghQgqd408-229">
          <mxGeometry relative="1" as="geometry" />
        </mxCell>
        <mxCell id="WRUpn4A0-qoghQgqd408-195" value="break;" style="ellipse;whiteSpace=wrap;html=1;fontSize=30;fontColor=#000000;rounded=1;glass=0;sketch=1;disableMultiStroke=0;startSize=100;" vertex="1" parent="WIyWlLk6GJQsqaUBKTNV-1">
          <mxGeometry x="1077" y="1160" width="120" height="60" as="geometry" />
        </mxCell>
        <mxCell id="WRUpn4A0-qoghQgqd408-196" value="" style="edgeStyle=orthogonalEdgeStyle;rounded=0;orthogonalLoop=1;jettySize=auto;html=1;fontFamily=Helvetica;fontSize=60;fontColor=#000000;startSize=100;" edge="1" parent="WIyWlLk6GJQsqaUBKTNV-1" source="WRUpn4A0-qoghQgqd408-169" target="WRUpn4A0-qoghQgqd408-195">
          <mxGeometry relative="1" as="geometry" />
        </mxCell>
        <mxCell id="WRUpn4A0-qoghQgqd408-246" style="edgeStyle=orthogonalEdgeStyle;rounded=0;orthogonalLoop=1;jettySize=auto;html=1;exitX=0.5;exitY=1;exitDx=0;exitDy=0;entryX=0.5;entryY=0;entryDx=0;entryDy=0;entryPerimeter=0;fontFamily=Helvetica;fontSize=25;fontColor=#000000;startSize=100;" edge="1" parent="WIyWlLk6GJQsqaUBKTNV-1" source="WRUpn4A0-qoghQgqd408-229" target="WRUpn4A0-qoghQgqd408-245">
          <mxGeometry relative="1" as="geometry" />
        </mxCell>
        <mxCell id="WRUpn4A0-qoghQgqd408-229" value="for row=0 row to num step row" style="swimlane;glass=0;labelBackgroundColor=#FAFAFA;sketch=1;disableMultiStroke=0;fontFamily=Helvetica;fontSize=29;fontColor=#000000;startSize=60;strokeColor=default;fillColor=default;" vertex="1" parent="WIyWlLk6GJQsqaUBKTNV-1">
          <mxGeometry x="1040" y="1340" width="473" height="690" as="geometry" />
        </mxCell>
        <mxCell id="WRUpn4A0-qoghQgqd408-237" style="edgeStyle=orthogonalEdgeStyle;rounded=0;orthogonalLoop=1;jettySize=auto;html=1;exitX=0.5;exitY=1;exitDx=0;exitDy=0;entryX=0.5;entryY=0;entryDx=0;entryDy=0;fontFamily=Helvetica;fontSize=25;fontColor=#000000;startSize=100;" edge="1" parent="WRUpn4A0-qoghQgqd408-229" source="WRUpn4A0-qoghQgqd408-232" target="WRUpn4A0-qoghQgqd408-236">
          <mxGeometry relative="1" as="geometry" />
        </mxCell>
        <mxCell id="WRUpn4A0-qoghQgqd408-232" value="for row=0 row to num step row" style="swimlane;glass=0;labelBackgroundColor=#FAFAFA;sketch=1;disableMultiStroke=0;fontFamily=Helvetica;fontSize=25;fontColor=#000000;startSize=60;strokeColor=default;fillColor=default;" vertex="1" parent="WRUpn4A0-qoghQgqd408-229">
          <mxGeometry x="26.5" y="120" width="420" height="390" as="geometry" />
        </mxCell>
        <mxCell id="WRUpn4A0-qoghQgqd408-235" value="printf(&quot;%-3d&quot;, arr[row][col])" style="shape=document;whiteSpace=wrap;html=1;boundedLbl=1;glass=0;labelBackgroundColor=#FAFAFA;sketch=1;disableMultiStroke=0;fontFamily=Helvetica;fontSize=25;fontColor=#000000;startSize=100;strokeColor=default;fillColor=default;" vertex="1" parent="WRUpn4A0-qoghQgqd408-232">
          <mxGeometry x="55" y="150" width="310" height="100" as="geometry" />
        </mxCell>
        <mxCell id="WRUpn4A0-qoghQgqd408-240" value="" style="edgeStyle=orthogonalEdgeStyle;rounded=0;orthogonalLoop=1;jettySize=auto;html=1;fontFamily=Helvetica;fontSize=30;fontColor=#000000;startSize=100;entryX=0.5;entryY=0;entryDx=0;entryDy=0;" edge="1" parent="WRUpn4A0-qoghQgqd408-232" target="WRUpn4A0-qoghQgqd408-235">
          <mxGeometry relative="1" as="geometry">
            <mxPoint x="209.18999999999983" y="60" as="sourcePoint" />
            <mxPoint x="210.29999999999995" y="110" as="targetPoint" />
            <Array as="points">
              <mxPoint x="211" y="60" />
              <mxPoint x="211" y="110" />
            </Array>
          </mxGeometry>
        </mxCell>
        <mxCell id="WRUpn4A0-qoghQgqd408-234" value="" style="edgeStyle=orthogonalEdgeStyle;rounded=0;orthogonalLoop=1;jettySize=auto;html=1;fontFamily=Helvetica;fontSize=30;fontColor=#000000;startSize=100;entryX=0.5;entryY=0;entryDx=0;entryDy=0;" edge="1" parent="WRUpn4A0-qoghQgqd408-229" target="WRUpn4A0-qoghQgqd408-232">
          <mxGeometry relative="1" as="geometry">
            <mxPoint x="235.38999999999987" y="60" as="sourcePoint" />
            <mxPoint x="235.38999999999987" y="120" as="targetPoint" />
            <Array as="points">
              <mxPoint x="237" y="60" />
              <mxPoint x="237" y="110" />
            </Array>
          </mxGeometry>
        </mxCell>
        <mxCell id="WRUpn4A0-qoghQgqd408-236" value="\n" style="shape=document;whiteSpace=wrap;html=1;boundedLbl=1;glass=0;labelBackgroundColor=#FAFAFA;sketch=1;disableMultiStroke=0;fontFamily=Helvetica;fontSize=25;fontColor=#000000;startSize=100;strokeColor=default;fillColor=default;" vertex="1" parent="WRUpn4A0-qoghQgqd408-229">
          <mxGeometry x="176.5" y="560" width="120" height="80" as="geometry" />
        </mxCell>
        <mxCell id="WRUpn4A0-qoghQgqd408-245" value="return 0" style="strokeWidth=2;html=1;shape=mxgraph.flowchart.terminator;whiteSpace=wrap;glass=0;labelBackgroundColor=#FAFAFA;sketch=1;disableMultiStroke=0;fontFamily=Helvetica;fontSize=25;fontColor=#000000;startSize=100;fillColor=default;" vertex="1" parent="WIyWlLk6GJQsqaUBKTNV-1">
          <mxGeometry x="1151.5" y="2090" width="250" height="60" as="geometry" />
        </mxCell>
      </root>
    </mxGraphModel>
  </diagram>
</mxfile>
